<svg xmlns="http://www.w3.org/2000/svg" xmlns:xlink="http://www.w3.org/1999/xlink" width="500" zoomAndPan="magnify" viewBox="0 0 375 374.999991" height="500" preserveAspectRatio="xMidYMid meet" version="1.0"><defs><g/><clipPath id="187fea0475"><path d="M 9.558594 59.015625 L 107.785156 59.015625 L 107.785156 176.765625 L 9.558594 176.765625 Z M 9.558594 59.015625 " clip-rule="nonzero"/></clipPath></defs><rect x="-37.5" width="450" fill="#ffffff" y="-37.499999" height="449.999989" fill-opacity="1"/><rect x="-37.5" width="450" fill="#ffffff" y="-37.499999" height="449.999989" fill-opacity="1"/><path fill="#000000" d="M 94.78125 79.675781 L 94.128906 79.675781 L 93.214844 79.417969 C 92.941406 79.332031 92.695312 79.199219 92.476562 79.011719 C 92.261719 78.828125 92.085938 78.609375 91.960938 78.351562 C 91.832031 78.09375 91.761719 77.824219 91.746094 77.539062 C 91.730469 77.253906 91.769531 76.976562 91.871094 76.707031 C 91.96875 76.4375 92.117188 76.199219 92.3125 75.992188 C 92.507812 75.785156 92.738281 75.625 93 75.511719 C 93.265625 75.398438 93.539062 75.34375 93.824219 75.339844 C 94.113281 75.339844 94.386719 75.398438 94.648438 75.511719 L 95.5625 75.769531 C 95.964844 75.988281 96.265625 76.304688 96.457031 76.71875 C 96.652344 77.132812 96.707031 77.5625 96.617188 78.011719 C 96.527344 78.460938 96.3125 78.839844 95.972656 79.148438 C 95.632812 79.453125 95.234375 79.632812 94.78125 79.675781 Z M 94.78125 79.675781 " fill-opacity="1" fill-rule="nonzero"/><path fill="#000000" d="M 38.75 92.566406 L 38.488281 92.828125 C 38.289062 93.023438 38.058594 93.179688 37.800781 93.285156 C 37.539062 93.394531 37.269531 93.449219 36.988281 93.449219 C 36.707031 93.449219 36.4375 93.394531 36.179688 93.285156 C 35.917969 93.179688 35.6875 93.027344 35.488281 92.828125 C 35.292969 92.628906 35.136719 92.398438 35.03125 92.140625 C 34.921875 91.878906 34.871094 91.609375 34.871094 91.328125 C 34.871094 91.046875 34.921875 90.777344 35.03125 90.519531 C 35.140625 90.257812 35.292969 90.03125 35.492188 89.832031 L 35.75 89.570312 C 35.949219 89.371094 36.179688 89.21875 36.4375 89.113281 C 36.699219 89.003906 36.96875 88.949219 37.25 88.949219 C 37.53125 88.949219 37.800781 89.003906 38.0625 89.109375 C 38.324219 89.21875 38.550781 89.371094 38.75 89.570312 C 38.949219 89.769531 39.101562 89.996094 39.210938 90.257812 C 39.316406 90.515625 39.371094 90.789062 39.371094 91.066406 C 39.371094 91.347656 39.316406 91.621094 39.210938 91.878906 C 39.101562 92.136719 38.949219 92.367188 38.75 92.566406 Z M 38.75 92.566406 " fill-opacity="1" fill-rule="nonzero"/><path fill="#000000" d="M 54.90625 157.140625 C 54.90625 157.503906 54.976562 157.851562 55.113281 158.1875 C 55.253906 158.523438 55.453125 158.820312 55.707031 159.074219 C 55.964844 159.332031 56.261719 159.527344 56.597656 159.667969 C 56.929688 159.808594 57.28125 159.875 57.644531 159.875 C 58.003906 159.875 58.355469 159.808594 58.691406 159.667969 C 59.027344 159.527344 59.320312 159.332031 59.578125 159.074219 C 59.835938 158.820312 60.03125 158.523438 60.171875 158.1875 C 60.308594 157.851562 60.378906 157.503906 60.378906 157.140625 C 60.378906 156.78125 60.308594 156.429688 60.171875 156.097656 C 60.03125 155.761719 59.835938 155.464844 59.578125 155.207031 C 59.320312 154.953125 59.027344 154.753906 58.691406 154.617188 C 58.355469 154.476562 58.003906 154.40625 57.644531 154.40625 C 57.28125 154.40625 56.929688 154.476562 56.597656 154.617188 C 56.261719 154.753906 55.964844 154.953125 55.707031 155.207031 C 55.453125 155.464844 55.253906 155.761719 55.113281 156.097656 C 54.976562 156.429688 54.90625 156.78125 54.90625 157.140625 Z M 54.90625 157.140625 " fill-opacity="1" fill-rule="nonzero"/><path fill="#000000" d="M 17.769531 118.085938 C 17.769531 118.445312 17.839844 118.796875 17.976562 119.128906 C 18.117188 119.464844 18.316406 119.761719 18.570312 120.015625 C 18.828125 120.273438 19.125 120.472656 19.457031 120.609375 C 19.792969 120.75 20.144531 120.816406 20.507812 120.816406 C 20.867188 120.816406 21.21875 120.75 21.554688 120.609375 C 21.886719 120.472656 22.183594 120.273438 22.441406 120.015625 C 22.699219 119.761719 22.894531 119.464844 23.035156 119.128906 C 23.171875 118.796875 23.242188 118.445312 23.242188 118.085938 C 23.242188 117.722656 23.171875 117.371094 23.035156 117.039062 C 22.894531 116.703125 22.699219 116.40625 22.441406 116.152344 C 22.183594 115.894531 21.886719 115.695312 21.554688 115.558594 C 21.21875 115.417969 20.867188 115.351562 20.507812 115.351562 C 20.144531 115.351562 19.792969 115.417969 19.457031 115.558594 C 19.125 115.695312 18.828125 115.894531 18.570312 116.152344 C 18.316406 116.40625 18.117188 116.703125 17.976562 117.039062 C 17.839844 117.371094 17.769531 117.722656 17.769531 118.085938 Z M 17.769531 118.085938 " fill-opacity="1" fill-rule="nonzero"/><g clip-path="url(#187fea0475)"><path fill="#000000" d="M 26.761719 127.066406 L 25.457031 127.847656 L 25.066406 127.847656 L 24.023438 128.238281 L 23.761719 128.238281 L 39.140625 143.992188 C 39.339844 144.191406 39.492188 144.421875 39.597656 144.679688 C 39.707031 144.9375 39.761719 145.210938 39.761719 145.488281 C 39.761719 145.769531 39.707031 146.039062 39.597656 146.300781 C 39.492188 146.558594 39.339844 146.789062 39.140625 146.988281 C 38.941406 147.1875 38.710938 147.339844 38.453125 147.445312 C 38.191406 147.554688 37.921875 147.605469 37.640625 147.605469 C 37.359375 147.605469 37.089844 147.554688 36.832031 147.445312 C 36.570312 147.339844 36.339844 147.1875 36.144531 146.988281 L 17.769531 128.628906 C 17.1875 128.484375 16.625 128.292969 16.078125 128.050781 C 15.527344 127.8125 15.003906 127.53125 14.503906 127.203125 C 14 126.878906 13.53125 126.511719 13.089844 126.109375 C 12.648438 125.703125 12.242188 125.265625 11.875 124.792969 C 11.507812 124.324219 11.179688 123.824219 10.894531 123.300781 C 10.609375 122.773438 10.371094 122.226562 10.175781 121.664062 C 9.980469 121.097656 9.835938 120.519531 9.738281 119.929688 C 9.636719 119.339844 9.589844 118.746094 9.589844 118.148438 C 9.589844 117.550781 9.636719 116.957031 9.738281 116.367188 C 9.835938 115.777344 9.980469 115.199219 10.175781 114.636719 C 10.371094 114.070312 10.609375 113.523438 10.894531 113 C 11.179688 112.472656 11.507812 111.976562 11.875 111.503906 C 12.242188 111.03125 12.648438 110.59375 13.089844 110.191406 C 13.53125 109.785156 14 109.421875 14.503906 109.09375 C 15.003906 108.769531 15.527344 108.484375 16.078125 108.246094 C 16.625 108.007812 17.1875 107.8125 17.769531 107.667969 L 31.710938 93.738281 C 31.910156 93.539062 32.140625 93.386719 32.398438 93.277344 C 32.660156 93.171875 32.929688 93.117188 33.210938 93.117188 C 33.492188 93.117188 33.761719 93.171875 34.023438 93.277344 C 34.28125 93.386719 34.511719 93.539062 34.710938 93.738281 C 34.90625 93.9375 35.0625 94.164062 35.167969 94.425781 C 35.277344 94.683594 35.328125 94.953125 35.328125 95.234375 C 35.328125 95.515625 35.277344 95.785156 35.167969 96.046875 C 35.0625 96.304688 34.90625 96.535156 34.710938 96.730469 L 23.765625 107.667969 L 24.414062 107.929688 L 25.457031 108.320312 L 25.847656 108.578125 L 26.761719 109.101562 L 26.890625 109.101562 L 27.804688 109.882812 L 28.195312 110.140625 L 28.84375 110.792969 L 29.367188 111.445312 L 55.949219 85.273438 L 54.125 79.9375 C 54.058594 79.769531 54.015625 79.597656 53.996094 79.417969 C 53.980469 79.285156 53.980469 79.15625 53.996094 79.027344 L 53.996094 78.375 L 54.253906 78.375 L 54.515625 77.984375 L 54.644531 77.984375 L 54.125 77.464844 L 42.398438 89.179688 C 42.199219 89.378906 41.96875 89.53125 41.710938 89.640625 C 41.449219 89.746094 41.179688 89.800781 40.898438 89.800781 C 40.617188 89.800781 40.347656 89.746094 40.085938 89.640625 C 39.828125 89.53125 39.597656 89.378906 39.398438 89.179688 C 39.203125 88.984375 39.046875 88.753906 38.941406 88.492188 C 38.832031 88.234375 38.78125 87.964844 38.78125 87.683594 C 38.78125 87.402344 38.832031 87.132812 38.941406 86.875 C 39.046875 86.613281 39.203125 86.386719 39.398438 86.1875 L 44.222656 81.238281 L 40.183594 72.90625 C 40.039062 72.609375 39.917969 72.304688 39.8125 71.996094 C 39.707031 71.683594 39.625 71.367188 39.558594 71.042969 C 39.496094 70.71875 39.453125 70.394531 39.429688 70.066406 C 39.40625 69.738281 39.402344 69.410156 39.421875 69.082031 C 39.441406 68.753906 39.480469 68.429688 39.539062 68.105469 C 39.597656 67.78125 39.679688 67.464844 39.777344 67.148438 C 39.878906 66.835938 40 66.53125 40.136719 66.234375 C 40.273438 65.933594 40.433594 65.644531 40.605469 65.367188 C 40.78125 65.089844 40.972656 64.824219 41.183594 64.570312 C 41.390625 64.316406 41.613281 64.074219 41.855469 63.847656 C 42.09375 63.621094 42.34375 63.414062 42.609375 63.21875 C 42.875 63.023438 43.152344 62.847656 43.441406 62.6875 C 43.730469 62.527344 44.027344 62.386719 44.332031 62.265625 C 44.636719 62.144531 44.949219 62.042969 45.269531 61.960938 C 45.585938 61.878906 45.910156 61.816406 46.234375 61.773438 C 46.5625 61.730469 46.890625 61.710938 47.21875 61.710938 C 48.1875 61.714844 49.121094 61.898438 50.023438 62.257812 C 50.921875 62.617188 51.722656 63.128906 52.429688 63.792969 L 56.210938 60.019531 C 56.414062 59.832031 56.644531 59.6875 56.902344 59.585938 C 57.164062 59.484375 57.429688 59.433594 57.707031 59.433594 C 57.984375 59.433594 58.253906 59.484375 58.511719 59.585938 C 58.769531 59.6875 59.003906 59.832031 59.207031 60.019531 L 65.851562 66.65625 C 66.136719 66.359375 66.480469 66.164062 66.882812 66.070312 C 67.285156 65.972656 67.679688 65.996094 68.066406 66.136719 L 89.4375 73.425781 C 89.710938 73.511719 89.957031 73.644531 90.175781 73.832031 C 90.394531 74.015625 90.566406 74.238281 90.695312 74.492188 C 90.820312 74.75 90.894531 75.019531 90.910156 75.304688 C 90.925781 75.589844 90.882812 75.867188 90.785156 76.136719 C 90.6875 76.40625 90.539062 76.644531 90.339844 76.851562 C 90.144531 77.058594 89.914062 77.21875 89.652344 77.332031 C 89.390625 77.445312 89.113281 77.503906 88.828125 77.503906 C 88.542969 77.503906 88.265625 77.445312 88.003906 77.332031 L 67.9375 70.304688 L 67.285156 70.953125 L 59.207031 79.027344 L 58.554688 79.675781 L 70.28125 113.398438 L 101.554688 82.152344 L 99.339844 81.371094 C 99.066406 81.285156 98.820312 81.152344 98.601562 80.964844 C 98.382812 80.78125 98.210938 80.5625 98.085938 80.304688 C 97.957031 80.046875 97.886719 79.777344 97.871094 79.492188 C 97.855469 79.207031 97.894531 78.929688 97.992188 78.660156 C 98.09375 78.390625 98.238281 78.152344 98.4375 77.945312 C 98.632812 77.738281 98.863281 77.578125 99.125 77.464844 C 99.390625 77.351562 99.664062 77.292969 99.949219 77.292969 C 100.234375 77.292969 100.511719 77.351562 100.773438 77.464844 L 106.246094 79.417969 C 106.421875 79.472656 106.585938 79.546875 106.738281 79.648438 C 106.890625 79.746094 107.03125 79.863281 107.152344 79.996094 C 107.277344 80.128906 107.378906 80.277344 107.464844 80.441406 C 107.546875 80.601562 107.609375 80.773438 107.648438 80.949219 C 107.6875 81.128906 107.703125 81.308594 107.695312 81.488281 C 107.6875 81.671875 107.660156 81.847656 107.605469 82.023438 C 107.550781 82.199219 107.472656 82.363281 107.375 82.515625 C 107.277344 82.667969 107.164062 82.808594 107.027344 82.933594 L 99.601562 90.351562 C 100.085938 91.859375 100.351562 93.398438 100.40625 94.980469 C 100.460938 96.558594 100.296875 98.113281 99.917969 99.648438 C 99.539062 101.183594 98.957031 102.636719 98.175781 104.007812 C 97.390625 105.382812 96.433594 106.621094 95.308594 107.730469 C 94.179688 108.835938 92.921875 109.769531 91.53125 110.527344 C 90.144531 111.285156 88.679688 111.839844 87.136719 112.191406 C 85.59375 112.542969 84.035156 112.675781 82.453125 112.59375 C 80.875 112.511719 79.335938 112.214844 77.839844 111.703125 L 70.804688 118.734375 C 70.414062 119.148438 69.9375 119.363281 69.371094 119.386719 L 68.847656 119.386719 C 68.492188 119.320312 68.175781 119.171875 67.898438 118.9375 C 67.621094 118.707031 67.414062 118.421875 67.285156 118.085938 L 57.382812 89.832031 L 31.191406 115.871094 C 31.554688 117.390625 31.554688 118.910156 31.191406 120.425781 L 58.554688 147.769531 C 59.136719 147.824219 59.703125 147.933594 60.265625 148.09375 C 60.824219 148.253906 61.367188 148.464844 61.886719 148.722656 C 62.410156 148.980469 62.902344 149.289062 63.367188 149.636719 C 63.832031 149.988281 64.261719 150.378906 64.65625 150.804688 C 65.050781 151.234375 65.398438 151.695312 65.710938 152.191406 C 66.019531 152.683594 66.277344 153.203125 66.492188 153.742188 C 66.707031 154.285156 66.867188 154.839844 66.980469 155.410156 C 67.089844 155.984375 67.148438 156.558594 67.15625 157.140625 L 67.15625 162.480469 L 70.152344 162.480469 C 70.9375 162.480469 71.71875 162.558594 72.492188 162.710938 C 73.261719 162.863281 74.011719 163.089844 74.738281 163.390625 C 75.46875 163.691406 76.15625 164.0625 76.8125 164.5 C 77.46875 164.9375 78.074219 165.433594 78.628906 165.988281 C 79.1875 166.542969 79.683594 167.148438 80.121094 167.804688 C 80.558594 168.457031 80.925781 169.148438 81.226562 169.875 C 81.527344 170.601562 81.757812 171.351562 81.910156 172.121094 C 82.0625 172.890625 82.140625 173.671875 82.140625 174.457031 C 82.140625 174.722656 82.09375 174.980469 81.996094 175.226562 C 81.898438 175.472656 81.757812 175.691406 81.578125 175.886719 C 81.394531 176.082031 81.183594 176.234375 80.945312 176.347656 C 80.703125 176.460938 80.449219 176.523438 80.1875 176.539062 L 35.101562 176.539062 C 34.824219 176.539062 34.558594 176.488281 34.300781 176.382812 C 34.046875 176.277344 33.820312 176.125 33.625 175.929688 C 33.429688 175.734375 33.28125 175.511719 33.175781 175.253906 C 33.066406 175 33.015625 174.734375 33.015625 174.457031 C 33.015625 173.671875 33.09375 172.890625 33.246094 172.121094 C 33.398438 171.351562 33.625 170.601562 33.929688 169.875 C 34.230469 169.148438 34.597656 168.457031 35.035156 167.804688 C 35.472656 167.148438 35.96875 166.542969 36.527344 165.988281 C 37.082031 165.433594 37.6875 164.9375 38.34375 164.5 C 38.996094 164.0625 39.6875 163.691406 40.414062 163.390625 C 41.144531 163.089844 41.894531 162.863281 42.664062 162.710938 C 43.4375 162.558594 44.214844 162.480469 45.003906 162.480469 L 48.128906 162.480469 L 48.128906 158.964844 L 40.050781 150.894531 C 39.84375 150.703125 39.679688 150.480469 39.5625 150.226562 C 39.445312 149.972656 39.378906 149.703125 39.367188 149.421875 C 39.355469 149.140625 39.394531 148.871094 39.492188 148.605469 C 39.589844 148.339844 39.730469 148.105469 39.921875 147.898438 C 40.113281 147.691406 40.335938 147.527344 40.589844 147.410156 C 40.84375 147.289062 41.113281 147.226562 41.394531 147.214844 C 41.675781 147.199219 41.945312 147.242188 42.210938 147.339844 C 42.476562 147.433594 42.710938 147.578125 42.917969 147.769531 L 48.78125 153.625 L 49.5625 152.195312 L 49.5625 151.933594 L 50.738281 150.503906 L 51.648438 149.722656 L 52.429688 149.199219 L 53.082031 148.808594 L 53.472656 148.808594 L 29.367188 124.464844 L 28.324219 125.765625 L 27.933594 126.15625 L 27.019531 126.9375 Z M 83.183594 108.320312 C 83.644531 108.324219 84.105469 108.304688 84.566406 108.261719 C 85.027344 108.214844 85.484375 108.148438 85.9375 108.050781 C 86.390625 107.957031 86.835938 107.839844 87.273438 107.699219 C 87.714844 107.554688 88.144531 107.390625 88.566406 107.199219 C 88.988281 107.011719 89.398438 106.796875 89.796875 106.566406 C 90.195312 106.332031 90.582031 106.074219 90.953125 105.800781 C 91.324219 105.523438 91.679688 105.230469 92.019531 104.914062 C 92.355469 104.601562 92.675781 104.269531 92.980469 103.921875 C 93.285156 103.570312 93.566406 103.207031 93.828125 102.828125 C 94.09375 102.449219 94.335938 102.054688 94.554688 101.648438 C 94.777344 101.242188 94.972656 100.828125 95.148438 100.398438 C 95.324219 99.972656 95.476562 99.535156 95.605469 99.089844 C 95.734375 98.648438 95.835938 98.199219 95.914062 97.742188 C 95.996094 97.289062 96.046875 96.828125 96.078125 96.367188 C 96.105469 95.90625 96.109375 95.445312 96.089844 94.984375 C 96.070312 94.523438 96.023438 94.0625 95.953125 93.609375 L 81.226562 108.1875 L 83.183594 108.1875 Z M 47.089844 66.007812 C 46.074219 65.992188 45.207031 66.339844 44.480469 67.046875 C 44.21875 67.320312 44.003906 67.625 43.832031 67.960938 C 43.664062 68.300781 43.550781 68.65625 43.492188 69.027344 C 43.433594 69.402344 43.433594 69.773438 43.492188 70.148438 C 43.550781 70.519531 43.664062 70.875 43.832031 71.214844 L 47.21875 78.246094 L 51.128906 74.339844 L 48 71.214844 C 47.796875 71.019531 47.640625 70.789062 47.53125 70.53125 C 47.421875 70.269531 47.363281 70 47.363281 69.71875 C 47.363281 69.433594 47.421875 69.164062 47.53125 68.902344 C 47.640625 68.644531 47.796875 68.417969 48 68.21875 L 49.304688 66.917969 C 48.675781 66.347656 47.9375 66.042969 47.089844 66.007812 Z M 57.644531 64.445312 L 52.5625 69.523438 L 57.644531 74.597656 L 62.726562 69.523438 Z M 37.445312 172.375 L 77.710938 172.375 C 77.480469 171.550781 77.125 170.78125 76.644531 170.074219 C 76.164062 169.363281 75.582031 168.75 74.898438 168.234375 C 74.21875 167.71875 73.46875 167.320312 72.65625 167.050781 C 71.84375 166.777344 71.007812 166.644531 70.152344 166.644531 L 45.003906 166.644531 C 44.144531 166.644531 43.3125 166.777344 42.5 167.050781 C 41.6875 167.320312 40.9375 167.71875 40.253906 168.234375 C 39.574219 168.75 38.992188 169.363281 38.511719 170.074219 C 38.027344 170.78125 37.675781 171.550781 37.445312 172.375 Z M 62.855469 162.480469 L 62.855469 157.140625 C 62.855469 156.796875 62.820312 156.457031 62.757812 156.117188 C 62.691406 155.777344 62.589844 155.449219 62.460938 155.128906 C 62.332031 154.808594 62.171875 154.503906 61.980469 154.214844 C 61.792969 153.929688 61.578125 153.660156 61.335938 153.414062 C 61.09375 153.164062 60.832031 152.945312 60.546875 152.75 C 60.265625 152.550781 59.964844 152.386719 59.648438 152.246094 C 59.332031 152.109375 59.003906 152.003906 58.667969 151.929688 C 58.328125 151.855469 57.988281 151.8125 57.644531 151.804688 L 56.210938 151.804688 L 55.167969 152.195312 L 53.863281 153.105469 L 53.734375 153.105469 L 53.210938 153.757812 L 52.691406 154.667969 L 52.429688 155.578125 C 52.351562 155.921875 52.308594 156.269531 52.300781 156.621094 L 52.300781 161.960938 L 62.855469 161.960938 Z M 14.121094 116.132812 C 13.9375 116.769531 13.851562 117.421875 13.859375 118.085938 C 13.859375 118.851562 13.988281 119.597656 14.25 120.320312 C 14.507812 121.042969 14.878906 121.699219 15.367188 122.292969 C 15.855469 122.886719 16.425781 123.378906 17.085938 123.777344 C 17.742188 124.171875 18.449219 124.441406 19.203125 124.59375 L 22.332031 124.59375 L 23.503906 124.203125 L 23.765625 124.203125 L 24.9375 123.03125 L 25.980469 122.121094 L 26.371094 121.597656 L 26.371094 121.207031 L 26.761719 120.296875 C 27.28125 118.820312 27.28125 117.347656 26.761719 115.871094 L 26.371094 114.960938 L 26.371094 114.699219 L 25.980469 114.179688 L 25.71875 113.917969 L 25.328125 113.398438 L 25.195312 113.398438 L 24.414062 112.746094 L 23.503906 112.226562 L 23.113281 112.226562 L 22.460938 111.964844 L 19.332031 111.964844 C 18.753906 112.050781 18.195312 112.210938 17.65625 112.445312 C 17.121094 112.679688 16.625 112.980469 16.164062 113.347656 C 15.707031 113.710938 15.304688 114.132812 14.960938 114.605469 C 14.613281 115.074219 14.332031 115.585938 14.121094 116.132812 Z M 14.121094 116.132812 " fill-opacity="1" fill-rule="nonzero"/></g><g fill="#000000" fill-opacity="1"><g transform="translate(84.678246, 173.734556)"><g><path d="M 17.875 0.59375 C 14.84375 0.59375 12.144531 -0.113281 9.78125 -1.53125 C 7.425781 -2.945312 5.601562 -4.867188 4.3125 -7.296875 C 3.03125 -9.722656 2.390625 -12.367188 2.390625 -15.234375 C 2.390625 -18.585938 3.234375 -21.460938 4.921875 -23.859375 C 6.617188 -26.253906 8.796875 -28.050781 11.453125 -29.25 C 14.109375 -30.457031 16.820312 -31.0625 19.59375 -31.0625 C 22.675781 -31.0625 25.390625 -30.335938 27.734375 -28.890625 C 30.085938 -27.441406 31.890625 -25.53125 33.140625 -23.15625 C 34.390625 -20.78125 35.015625 -18.253906 35.015625 -15.578125 C 35.015625 -12.617188 34.234375 -9.898438 32.671875 -7.421875 C 31.109375 -4.953125 29.015625 -3 26.390625 -1.5625 C 23.773438 -0.125 20.9375 0.59375 17.875 0.59375 Z M 19.59375 -0.4375 C 21.800781 -0.4375 23.789062 -0.972656 25.5625 -2.046875 C 27.34375 -3.117188 28.742188 -4.695312 29.765625 -6.78125 C 30.796875 -8.875 31.3125 -11.351562 31.3125 -14.21875 C 31.3125 -17.28125 30.738281 -20 29.59375 -22.375 C 28.457031 -24.75 26.851562 -26.601562 24.78125 -27.9375 C 22.71875 -29.269531 20.300781 -29.9375 17.53125 -29.9375 C 13.945312 -29.9375 11.144531 -28.78125 9.125 -26.46875 C 7.113281 -24.15625 6.109375 -20.984375 6.109375 -16.953125 C 6.109375 -13.890625 6.675781 -11.09375 7.8125 -8.5625 C 8.957031 -6.039062 10.550781 -4.054688 12.59375 -2.609375 C 14.644531 -1.160156 16.976562 -0.4375 19.59375 -0.4375 Z M 19.59375 -0.4375 "/></g></g></g><g fill="#000000" fill-opacity="1"><g transform="translate(122.086397, 173.734556)"><g><path d="M 34.390625 -30.53125 C 34.484375 -30.53125 34.53125 -30.429688 34.53125 -30.234375 C 34.53125 -30.035156 34.484375 -29.9375 34.390625 -29.9375 C 33.015625 -29.9375 32.019531 -29.5625 31.40625 -28.8125 C 30.789062 -28.0625 30.484375 -26.84375 30.484375 -25.15625 L 30.484375 0.59375 C 30.484375 0.65625 30.398438 0.703125 30.234375 0.734375 C 30.066406 0.765625 29.953125 0.75 29.890625 0.6875 L 7.421875 -26.515625 L 6.984375 -27.015625 L 6.984375 -5.328125 C 6.984375 -3.628906 7.285156 -2.414062 7.890625 -1.6875 C 8.492188 -0.957031 9.460938 -0.59375 10.796875 -0.59375 C 10.890625 -0.59375 10.9375 -0.492188 10.9375 -0.296875 C 10.9375 -0.0976562 10.890625 0 10.796875 0 C 9.984375 0 9.363281 -0.015625 8.9375 -0.046875 L 6.5 -0.09375 L 4 -0.046875 C 3.550781 -0.015625 2.882812 0 2 0 C 1.9375 0 1.90625 -0.0976562 1.90625 -0.296875 C 1.90625 -0.492188 1.9375 -0.59375 2 -0.59375 C 3.40625 -0.59375 4.398438 -0.957031 4.984375 -1.6875 C 5.566406 -2.414062 5.859375 -3.628906 5.859375 -5.328125 L 5.859375 -28.1875 C 4.585938 -29.351562 3.300781 -29.9375 2 -29.9375 C 1.90625 -29.9375 1.859375 -30.035156 1.859375 -30.234375 C 1.859375 -30.429688 1.90625 -30.53125 2 -30.53125 L 3.8125 -30.484375 C 4.195312 -30.453125 4.734375 -30.4375 5.421875 -30.4375 C 6.140625 -30.4375 6.722656 -30.453125 7.171875 -30.484375 C 7.628906 -30.515625 7.988281 -30.53125 8.25 -30.53125 C 8.507812 -30.53125 8.695312 -30.472656 8.8125 -30.359375 C 8.925781 -30.242188 9.113281 -29.988281 9.375 -29.59375 C 9.769531 -29.007812 10.160156 -28.472656 10.546875 -27.984375 L 29.359375 -4.890625 L 29.359375 -25.15625 C 29.359375 -26.84375 29.070312 -28.0625 28.5 -28.8125 C 27.925781 -29.5625 26.972656 -29.9375 25.640625 -29.9375 C 25.578125 -29.9375 25.546875 -30.035156 25.546875 -30.234375 C 25.546875 -30.429688 25.578125 -30.53125 25.640625 -30.53125 L 27.546875 -30.484375 C 28.523438 -30.410156 29.320312 -30.375 29.9375 -30.375 C 30.53125 -30.375 31.347656 -30.410156 32.390625 -30.484375 Z M 34.390625 -30.53125 "/></g></g></g><g fill="#000000" fill-opacity="1"><g transform="translate(157.589954, 173.734556)"><g><path d="M 9.234375 -29.640625 C 7.179688 -29.640625 5.640625 -29.117188 4.609375 -28.078125 C 3.585938 -27.035156 2.847656 -25.265625 2.390625 -22.765625 C 2.390625 -22.691406 2.300781 -22.65625 2.125 -22.65625 C 1.945312 -22.65625 1.859375 -22.691406 1.859375 -22.765625 C 1.984375 -23.929688 2.128906 -25.457031 2.296875 -27.34375 C 2.460938 -29.238281 2.546875 -30.660156 2.546875 -31.609375 C 2.546875 -31.765625 2.632812 -31.84375 2.8125 -31.84375 C 2.988281 -31.84375 3.078125 -31.765625 3.078125 -31.609375 C 3.078125 -30.890625 3.957031 -30.53125 5.71875 -30.53125 C 8.476562 -30.425781 11.75 -30.375 15.53125 -30.375 C 17.457031 -30.375 19.492188 -30.410156 21.640625 -30.484375 L 24.953125 -30.53125 C 26.128906 -30.53125 27 -30.609375 27.5625 -30.765625 C 28.132812 -30.929688 28.503906 -31.257812 28.671875 -31.75 C 28.703125 -31.875 28.796875 -31.9375 28.953125 -31.9375 C 29.117188 -31.9375 29.203125 -31.875 29.203125 -31.75 C 29.109375 -30.800781 29.007812 -29.363281 28.90625 -27.4375 C 28.8125 -25.519531 28.765625 -23.960938 28.765625 -22.765625 C 28.765625 -22.691406 28.664062 -22.65625 28.46875 -22.65625 C 28.28125 -22.65625 28.1875 -22.691406 28.1875 -22.765625 C 28.082031 -25.304688 27.554688 -27.085938 26.609375 -28.109375 C 25.671875 -29.128906 24.113281 -29.640625 21.9375 -29.640625 C 20.46875 -29.640625 19.421875 -29.570312 18.796875 -29.4375 C 18.179688 -29.3125 17.757812 -29.035156 17.53125 -28.609375 C 17.300781 -28.191406 17.1875 -27.476562 17.1875 -26.46875 L 17.1875 -3.953125 C 17.1875 -2.941406 17.300781 -2.207031 17.53125 -1.75 C 17.757812 -1.300781 18.195312 -0.992188 18.84375 -0.828125 C 19.5 -0.671875 20.53125 -0.59375 21.9375 -0.59375 C 22.03125 -0.59375 22.078125 -0.492188 22.078125 -0.296875 C 22.078125 -0.0976562 22.03125 0 21.9375 0 C 20.851562 0 19.988281 -0.015625 19.34375 -0.046875 L 15.53125 -0.09375 L 11.875 -0.046875 C 11.21875 -0.015625 10.320312 0 9.1875 0 C 9.113281 0 9.078125 -0.0976562 9.078125 -0.296875 C 9.078125 -0.492188 9.113281 -0.59375 9.1875 -0.59375 C 10.582031 -0.59375 11.601562 -0.671875 12.25 -0.828125 C 12.90625 -0.992188 13.351562 -1.3125 13.59375 -1.78125 C 13.84375 -2.25 13.96875 -2.972656 13.96875 -3.953125 L 13.96875 -26.578125 C 13.96875 -27.578125 13.851562 -28.28125 13.625 -28.6875 C 13.394531 -29.101562 12.96875 -29.363281 12.34375 -29.46875 C 11.726562 -29.582031 10.691406 -29.640625 9.234375 -29.640625 Z M 9.234375 -29.640625 "/></g></g></g><g fill="#000000" fill-opacity="1"><g transform="translate(188.55179, 173.734556)"><g><path d="M 9.71875 -3.953125 C 9.71875 -2.972656 9.816406 -2.25 10.015625 -1.78125 C 10.210938 -1.3125 10.59375 -0.992188 11.15625 -0.828125 C 11.726562 -0.671875 12.632812 -0.59375 13.875 -0.59375 C 13.96875 -0.59375 14.015625 -0.492188 14.015625 -0.296875 C 14.015625 -0.0976562 13.96875 0 13.875 0 C 12.894531 0 12.113281 -0.015625 11.53125 -0.046875 L 8.0625 -0.09375 L 4.6875 -0.046875 C 4.101562 -0.015625 3.304688 0 2.296875 0 C 2.203125 0 2.15625 -0.0976562 2.15625 -0.296875 C 2.15625 -0.492188 2.203125 -0.59375 2.296875 -0.59375 C 3.535156 -0.59375 4.4375 -0.671875 5 -0.828125 C 5.570312 -0.992188 5.960938 -1.3125 6.171875 -1.78125 C 6.390625 -2.25 6.5 -2.972656 6.5 -3.953125 L 6.5 -26.578125 C 6.5 -27.546875 6.390625 -28.257812 6.171875 -28.71875 C 5.960938 -29.175781 5.570312 -29.492188 5 -29.671875 C 4.4375 -29.847656 3.535156 -29.9375 2.296875 -29.9375 C 2.203125 -29.9375 2.15625 -30.035156 2.15625 -30.234375 C 2.15625 -30.429688 2.203125 -30.53125 2.296875 -30.53125 L 4.6875 -30.484375 C 6.050781 -30.410156 7.175781 -30.375 8.0625 -30.375 C 9.039062 -30.375 10.210938 -30.410156 11.578125 -30.484375 L 13.875 -30.53125 C 13.96875 -30.53125 14.015625 -30.429688 14.015625 -30.234375 C 14.015625 -30.035156 13.96875 -29.9375 13.875 -29.9375 C 12.664062 -29.9375 11.773438 -29.835938 11.203125 -29.640625 C 10.640625 -29.453125 10.25 -29.117188 10.03125 -28.640625 C 9.820312 -28.171875 9.71875 -27.445312 9.71875 -26.46875 Z M 9.71875 -3.953125 "/></g></g></g><g fill="#000000" fill-opacity="1"><g transform="translate(204.765248, 173.734556)"><g><path d="M 34.390625 -30.53125 C 34.484375 -30.53125 34.53125 -30.429688 34.53125 -30.234375 C 34.53125 -30.035156 34.484375 -29.9375 34.390625 -29.9375 C 33.015625 -29.9375 32.019531 -29.5625 31.40625 -28.8125 C 30.789062 -28.0625 30.484375 -26.84375 30.484375 -25.15625 L 30.484375 0.59375 C 30.484375 0.65625 30.398438 0.703125 30.234375 0.734375 C 30.066406 0.765625 29.953125 0.75 29.890625 0.6875 L 7.421875 -26.515625 L 6.984375 -27.015625 L 6.984375 -5.328125 C 6.984375 -3.628906 7.285156 -2.414062 7.890625 -1.6875 C 8.492188 -0.957031 9.460938 -0.59375 10.796875 -0.59375 C 10.890625 -0.59375 10.9375 -0.492188 10.9375 -0.296875 C 10.9375 -0.0976562 10.890625 0 10.796875 0 C 9.984375 0 9.363281 -0.015625 8.9375 -0.046875 L 6.5 -0.09375 L 4 -0.046875 C 3.550781 -0.015625 2.882812 0 2 0 C 1.9375 0 1.90625 -0.0976562 1.90625 -0.296875 C 1.90625 -0.492188 1.9375 -0.59375 2 -0.59375 C 3.40625 -0.59375 4.398438 -0.957031 4.984375 -1.6875 C 5.566406 -2.414062 5.859375 -3.628906 5.859375 -5.328125 L 5.859375 -28.1875 C 4.585938 -29.351562 3.300781 -29.9375 2 -29.9375 C 1.90625 -29.9375 1.859375 -30.035156 1.859375 -30.234375 C 1.859375 -30.429688 1.90625 -30.53125 2 -30.53125 L 3.8125 -30.484375 C 4.195312 -30.453125 4.734375 -30.4375 5.421875 -30.4375 C 6.140625 -30.4375 6.722656 -30.453125 7.171875 -30.484375 C 7.628906 -30.515625 7.988281 -30.53125 8.25 -30.53125 C 8.507812 -30.53125 8.695312 -30.472656 8.8125 -30.359375 C 8.925781 -30.242188 9.113281 -29.988281 9.375 -29.59375 C 9.769531 -29.007812 10.160156 -28.472656 10.546875 -27.984375 L 29.359375 -4.890625 L 29.359375 -25.15625 C 29.359375 -26.84375 29.070312 -28.0625 28.5 -28.8125 C 27.925781 -29.5625 26.972656 -29.9375 25.640625 -29.9375 C 25.578125 -29.9375 25.546875 -30.035156 25.546875 -30.234375 C 25.546875 -30.429688 25.578125 -30.53125 25.640625 -30.53125 L 27.546875 -30.484375 C 28.523438 -30.410156 29.320312 -30.375 29.9375 -30.375 C 30.53125 -30.375 31.347656 -30.410156 32.390625 -30.484375 Z M 34.390625 -30.53125 "/></g></g></g><g fill="#000000" fill-opacity="1"><g transform="translate(240.268805, 173.734556)"><g><path d="M 35.265625 -0.59375 C 35.359375 -0.59375 35.40625 -0.492188 35.40625 -0.296875 C 35.40625 -0.0976562 35.359375 0 35.265625 0 C 34.253906 0 33.457031 -0.015625 32.875 -0.046875 L 29.5 -0.09375 L 25.9375 -0.046875 C 25.351562 -0.015625 24.570312 0 23.59375 0 C 23.488281 0 23.4375 -0.0976562 23.4375 -0.296875 C 23.4375 -0.492188 23.488281 -0.59375 23.59375 -0.59375 C 24.863281 -0.59375 25.789062 -0.671875 26.375 -0.828125 C 26.957031 -0.992188 27.351562 -1.3125 27.5625 -1.78125 C 27.78125 -2.25 27.890625 -2.972656 27.890625 -3.953125 L 27.890625 -15.390625 L 9.140625 -15.390625 L 9.140625 -3.953125 C 9.140625 -2.972656 9.242188 -2.25 9.453125 -1.78125 C 9.660156 -1.3125 10.054688 -0.992188 10.640625 -0.828125 C 11.234375 -0.671875 12.164062 -0.59375 13.4375 -0.59375 C 13.5 -0.59375 13.53125 -0.492188 13.53125 -0.296875 C 13.53125 -0.0976562 13.5 0 13.4375 0 C 12.425781 0 11.625 -0.015625 11.03125 -0.046875 L 7.515625 -0.09375 L 4.15625 -0.046875 C 3.5625 -0.015625 2.742188 0 1.703125 0 C 1.640625 0 1.609375 -0.0976562 1.609375 -0.296875 C 1.609375 -0.492188 1.640625 -0.59375 1.703125 -0.59375 C 2.941406 -0.59375 3.863281 -0.671875 4.46875 -0.828125 C 5.070312 -0.992188 5.476562 -1.3125 5.6875 -1.78125 C 5.894531 -2.25 6 -2.972656 6 -3.953125 L 6 -26.578125 C 6 -27.546875 5.894531 -28.257812 5.6875 -28.71875 C 5.476562 -29.175781 5.078125 -29.492188 4.484375 -29.671875 C 3.898438 -29.847656 2.992188 -29.9375 1.765625 -29.9375 C 1.691406 -29.9375 1.65625 -30.035156 1.65625 -30.234375 C 1.65625 -30.429688 1.691406 -30.53125 1.765625 -30.53125 L 4.25 -30.484375 C 5.613281 -30.410156 6.703125 -30.375 7.515625 -30.375 C 8.460938 -30.375 9.65625 -30.410156 11.09375 -30.484375 L 13.4375 -30.53125 C 13.5 -30.53125 13.53125 -30.429688 13.53125 -30.234375 C 13.53125 -30.035156 13.5 -29.9375 13.4375 -29.9375 C 12.195312 -29.9375 11.273438 -29.835938 10.671875 -29.640625 C 10.066406 -29.453125 9.660156 -29.117188 9.453125 -28.640625 C 9.242188 -28.171875 9.140625 -27.445312 9.140625 -26.46875 L 9.140625 -16.40625 L 27.890625 -16.40625 L 27.890625 -26.46875 C 27.890625 -27.445312 27.78125 -28.171875 27.5625 -28.640625 C 27.351562 -29.117188 26.957031 -29.453125 26.375 -29.640625 C 25.789062 -29.835938 24.863281 -29.9375 23.59375 -29.9375 C 23.488281 -29.9375 23.4375 -30.035156 23.4375 -30.234375 C 23.4375 -30.429688 23.488281 -30.53125 23.59375 -30.53125 L 25.9375 -30.484375 C 27.363281 -30.410156 28.550781 -30.375 29.5 -30.375 C 30.382812 -30.375 31.507812 -30.410156 32.875 -30.484375 L 35.265625 -30.53125 C 35.359375 -30.53125 35.40625 -30.429688 35.40625 -30.234375 C 35.40625 -30.035156 35.359375 -29.9375 35.265625 -29.9375 C 34.023438 -29.9375 33.113281 -29.847656 32.53125 -29.671875 C 31.945312 -29.492188 31.546875 -29.175781 31.328125 -28.71875 C 31.117188 -28.257812 31.015625 -27.546875 31.015625 -26.578125 L 31.015625 -3.953125 C 31.015625 -2.972656 31.117188 -2.25 31.328125 -1.78125 C 31.546875 -1.3125 31.945312 -0.992188 32.53125 -0.828125 C 33.113281 -0.671875 34.023438 -0.59375 35.265625 -0.59375 Z M 35.265625 -0.59375 "/></g></g></g><g fill="#000000" fill-opacity="1"><g transform="translate(277.335111, 173.734556)"><g><path d="M 17.875 0.59375 C 14.84375 0.59375 12.144531 -0.113281 9.78125 -1.53125 C 7.425781 -2.945312 5.601562 -4.867188 4.3125 -7.296875 C 3.03125 -9.722656 2.390625 -12.367188 2.390625 -15.234375 C 2.390625 -18.585938 3.234375 -21.460938 4.921875 -23.859375 C 6.617188 -26.253906 8.796875 -28.050781 11.453125 -29.25 C 14.109375 -30.457031 16.820312 -31.0625 19.59375 -31.0625 C 22.675781 -31.0625 25.390625 -30.335938 27.734375 -28.890625 C 30.085938 -27.441406 31.890625 -25.53125 33.140625 -23.15625 C 34.390625 -20.78125 35.015625 -18.253906 35.015625 -15.578125 C 35.015625 -12.617188 34.234375 -9.898438 32.671875 -7.421875 C 31.109375 -4.953125 29.015625 -3 26.390625 -1.5625 C 23.773438 -0.125 20.9375 0.59375 17.875 0.59375 Z M 19.59375 -0.4375 C 21.800781 -0.4375 23.789062 -0.972656 25.5625 -2.046875 C 27.34375 -3.117188 28.742188 -4.695312 29.765625 -6.78125 C 30.796875 -8.875 31.3125 -11.351562 31.3125 -14.21875 C 31.3125 -17.28125 30.738281 -20 29.59375 -22.375 C 28.457031 -24.75 26.851562 -26.601562 24.78125 -27.9375 C 22.71875 -29.269531 20.300781 -29.9375 17.53125 -29.9375 C 13.945312 -29.9375 11.144531 -28.78125 9.125 -26.46875 C 7.113281 -24.15625 6.109375 -20.984375 6.109375 -16.953125 C 6.109375 -13.890625 6.675781 -11.09375 7.8125 -8.5625 C 8.957031 -6.039062 10.550781 -4.054688 12.59375 -2.609375 C 14.644531 -1.160156 16.976562 -0.4375 19.59375 -0.4375 Z M 19.59375 -0.4375 "/></g></g></g><g fill="#000000" fill-opacity="1"><g transform="translate(314.743275, 173.734556)"><g><path d="M 2.09375 -29.703125 C 2.0625 -30.054688 2.46875 -30.40625 3.3125 -30.75 C 4.164062 -31.09375 4.867188 -31.265625 5.421875 -31.265625 C 5.710938 -31.265625 5.84375 -31.195312 5.8125 -31.0625 L 3.265625 -17.875 C 3.203125 -17.8125 3.085938 -17.765625 2.921875 -17.734375 C 2.765625 -17.703125 2.6875 -17.734375 2.6875 -17.828125 Z M 2.09375 -29.703125 "/></g></g></g><g fill="#000000" fill-opacity="1"><g transform="translate(321.580276, 173.734556)"><g><path d="M 7.078125 -24.8125 C 7.078125 -23.539062 7.382812 -22.429688 8 -21.484375 C 8.625 -20.546875 9.375 -19.757812 10.25 -19.125 C 11.132812 -18.488281 12.375 -17.679688 13.96875 -16.703125 C 15.664062 -15.691406 16.984375 -14.84375 17.921875 -14.15625 C 18.867188 -13.476562 19.675781 -12.609375 20.34375 -11.546875 C 21.007812 -10.492188 21.34375 -9.234375 21.34375 -7.765625 C 21.34375 -6.203125 20.953125 -4.785156 20.171875 -3.515625 C 19.390625 -2.242188 18.238281 -1.238281 16.71875 -0.5 C 15.207031 0.226562 13.394531 0.59375 11.28125 0.59375 C 8.769531 0.59375 6.472656 0.0195312 4.390625 -1.125 C 4.234375 -1.21875 4.128906 -1.328125 4.078125 -1.453125 C 4.023438 -1.585938 3.984375 -1.785156 3.953125 -2.046875 L 3.328125 -8.6875 C 3.285156 -8.820312 3.351562 -8.90625 3.53125 -8.9375 C 3.71875 -8.96875 3.828125 -8.921875 3.859375 -8.796875 C 4.378906 -6.453125 5.347656 -4.429688 6.765625 -2.734375 C 8.179688 -1.046875 10.0625 -0.203125 12.40625 -0.203125 C 14.03125 -0.203125 15.40625 -0.644531 16.53125 -1.53125 C 17.65625 -2.425781 18.21875 -3.851562 18.21875 -5.8125 C 18.21875 -7.28125 17.890625 -8.550781 17.234375 -9.625 C 16.585938 -10.695312 15.800781 -11.582031 14.875 -12.28125 C 13.945312 -12.976562 12.6875 -13.800781 11.09375 -14.75 C 9.53125 -15.695312 8.300781 -16.507812 7.40625 -17.1875 C 6.507812 -17.875 5.75 -18.738281 5.125 -19.78125 C 4.507812 -20.820312 4.203125 -22.039062 4.203125 -23.4375 C 4.203125 -25.070312 4.632812 -26.46875 5.5 -27.625 C 6.363281 -28.78125 7.484375 -29.640625 8.859375 -30.203125 C 10.242188 -30.773438 11.71875 -31.0625 13.28125 -31.0625 C 15.207031 -31.0625 17.113281 -30.671875 19 -29.890625 C 19.488281 -29.722656 19.734375 -29.445312 19.734375 -29.0625 L 20.078125 -23.4375 C 20.078125 -23.3125 19.992188 -23.25 19.828125 -23.25 C 19.671875 -23.25 19.570312 -23.3125 19.53125 -23.4375 C 19.269531 -25.132812 18.570312 -26.707031 17.4375 -28.15625 C 16.300781 -29.601562 14.65625 -30.328125 12.5 -30.328125 C 10.675781 -30.328125 9.316406 -29.796875 8.421875 -28.734375 C 7.523438 -27.679688 7.078125 -26.375 7.078125 -24.8125 Z M 7.078125 -24.8125 "/></g></g></g><g fill="#000000" fill-opacity="1"><g transform="translate(284.237878, 193.531768)"><g><path d="M 1.296875 -12.6875 L 3.484375 -12.6875 C 4.734375 -12.6875 5.65625 -12.390625 6.25 -11.796875 C 6.84375 -11.210938 7.140625 -10.316406 7.140625 -9.109375 C 7.140625 -8.242188 6.988281 -7.53125 6.6875 -6.96875 C 6.382812 -6.40625 5.90625 -5.976562 5.25 -5.6875 L 7.734375 0 L 6.265625 0 L 4.015625 -5.34375 L 2.640625 -5.34375 L 2.640625 0 L 1.296875 0 Z M 2.640625 -11.453125 L 2.640625 -6.53125 L 3.640625 -6.53125 C 4.347656 -6.53125 4.878906 -6.742188 5.234375 -7.171875 C 5.597656 -7.597656 5.78125 -8.226562 5.78125 -9.0625 C 5.78125 -9.90625 5.597656 -10.515625 5.234375 -10.890625 C 4.867188 -11.265625 4.285156 -11.453125 3.484375 -11.453125 Z M 2.640625 -11.453125 "/></g></g><g transform="translate(292.232721, 193.531768)"><g><path d="M 6.265625 -11.46875 L 2.640625 -11.46875 L 2.640625 -7.25 L 6.046875 -7.25 L 6.046875 -6.03125 L 2.640625 -6.03125 L 2.640625 -1.234375 L 6.265625 -1.234375 L 6.265625 0 L 1.296875 0 L 1.296875 -12.6875 L 6.265625 -12.6875 Z M 6.265625 -11.46875 "/></g></g><g transform="translate(299.3161, 193.531768)"><g><path d="M 3.1875 -1.046875 C 3.757812 -1.046875 4.222656 -1.253906 4.578125 -1.671875 C 4.941406 -2.085938 5.125 -2.59375 5.125 -3.1875 C 5.125 -3.789062 4.960938 -4.296875 4.640625 -4.703125 C 4.328125 -5.109375 3.878906 -5.484375 3.296875 -5.828125 C 2.378906 -6.347656 1.734375 -6.875 1.359375 -7.40625 C 0.984375 -7.9375 0.796875 -8.671875 0.796875 -9.609375 C 0.796875 -10.546875 1.082031 -11.320312 1.65625 -11.9375 C 2.238281 -12.5625 2.984375 -12.875 3.890625 -12.875 C 4.804688 -12.875 5.625 -12.664062 6.34375 -12.25 C 6.226562 -11.988281 6.066406 -11.597656 5.859375 -11.078125 C 5.191406 -11.429688 4.570312 -11.609375 4 -11.609375 C 3.425781 -11.609375 2.96875 -11.421875 2.625 -11.046875 C 2.289062 -10.671875 2.125 -10.179688 2.125 -9.578125 C 2.125 -8.972656 2.25 -8.492188 2.5 -8.140625 C 2.75 -7.785156 3.273438 -7.382812 4.078125 -6.9375 C 4.921875 -6.476562 5.53125 -5.96875 5.90625 -5.40625 C 6.28125 -4.84375 6.46875 -4.164062 6.46875 -3.375 C 6.46875 -2.289062 6.171875 -1.425781 5.578125 -0.78125 C 4.992188 -0.144531 4.203125 0.171875 3.203125 0.171875 C 2.210938 0.171875 1.375 0.00390625 0.6875 -0.328125 L 0.6875 -1.71875 C 1.039062 -1.519531 1.441406 -1.359375 1.890625 -1.234375 C 2.335938 -1.109375 2.769531 -1.046875 3.1875 -1.046875 Z M 3.1875 -1.046875 "/></g></g><g transform="translate(306.442881, 193.531768)"><g><path d="M 7.96875 -12.6875 L 7.96875 -4.25 C 7.96875 -2.789062 7.679688 -1.6875 7.109375 -0.9375 C 6.546875 -0.195312 5.707031 0.171875 4.59375 0.171875 C 3.488281 0.171875 2.644531 -0.203125 2.0625 -0.953125 C 1.488281 -1.710938 1.203125 -2.8125 1.203125 -4.25 L 1.203125 -12.6875 L 2.5625 -12.6875 L 2.5625 -4.125 C 2.5625 -3.125 2.738281 -2.363281 3.09375 -1.84375 C 3.445312 -1.320312 3.953125 -1.0625 4.609375 -1.0625 C 5.265625 -1.0625 5.765625 -1.320312 6.109375 -1.84375 C 6.453125 -2.363281 6.625 -3.125 6.625 -4.125 L 6.625 -12.6875 Z M 7.96875 -12.6875 "/></g></g><g transform="translate(315.626968, 193.531768)"><g><path d="M 11.40625 0 L 10.109375 0 L 10.109375 -8.984375 C 10.109375 -9.546875 10.140625 -10.3125 10.203125 -11.28125 L 10.125 -11.28125 L 7.078125 0 L 5.59375 0 L 2.53125 -11.296875 L 2.453125 -11.296875 C 2.523438 -10.253906 2.5625 -9.488281 2.5625 -9 L 2.5625 0 L 1.296875 0 L 1.296875 -12.6875 L 3.328125 -12.6875 L 5.84375 -3.453125 C 6.039062 -2.703125 6.191406 -2.023438 6.296875 -1.421875 L 6.359375 -1.421875 C 6.441406 -1.910156 6.601562 -2.578125 6.84375 -3.421875 L 9.328125 -12.6875 L 11.40625 -12.6875 Z M 11.40625 0 "/></g></g><g transform="translate(328.344063, 193.531768)"><g><path d="M 4.859375 -12.875 C 6.128906 -12.875 7.101562 -12.304688 7.78125 -11.171875 C 8.457031 -10.046875 8.796875 -8.4375 8.796875 -6.34375 C 8.796875 -4.257812 8.453125 -2.648438 7.765625 -1.515625 C 7.085938 -0.390625 6.109375 0.171875 4.828125 0.171875 C 3.546875 0.171875 2.566406 -0.390625 1.890625 -1.515625 C 1.222656 -2.648438 0.890625 -4.269531 0.890625 -6.375 C 0.890625 -10.707031 2.210938 -12.875 4.859375 -12.875 Z M 4.859375 -11.640625 C 4.003906 -11.640625 3.359375 -11.191406 2.921875 -10.296875 C 2.492188 -9.398438 2.28125 -8.082031 2.28125 -6.34375 C 2.28125 -4.613281 2.492188 -3.300781 2.921875 -2.40625 C 3.359375 -1.507812 4 -1.0625 4.84375 -1.0625 C 5.6875 -1.0625 6.320312 -1.503906 6.75 -2.390625 C 7.1875 -3.273438 7.40625 -4.597656 7.40625 -6.359375 C 7.40625 -9.878906 6.554688 -11.640625 4.859375 -11.640625 Z M 4.859375 -11.640625 "/></g></g><g transform="translate(338.031625, 193.531768)"><g><path d="M 3.1875 -1.046875 C 3.757812 -1.046875 4.222656 -1.253906 4.578125 -1.671875 C 4.941406 -2.085938 5.125 -2.59375 5.125 -3.1875 C 5.125 -3.789062 4.960938 -4.296875 4.640625 -4.703125 C 4.328125 -5.109375 3.878906 -5.484375 3.296875 -5.828125 C 2.378906 -6.347656 1.734375 -6.875 1.359375 -7.40625 C 0.984375 -7.9375 0.796875 -8.671875 0.796875 -9.609375 C 0.796875 -10.546875 1.082031 -11.320312 1.65625 -11.9375 C 2.238281 -12.5625 2.984375 -12.875 3.890625 -12.875 C 4.804688 -12.875 5.625 -12.664062 6.34375 -12.25 C 6.226562 -11.988281 6.066406 -11.597656 5.859375 -11.078125 C 5.191406 -11.429688 4.570312 -11.609375 4 -11.609375 C 3.425781 -11.609375 2.96875 -11.421875 2.625 -11.046875 C 2.289062 -10.671875 2.125 -10.179688 2.125 -9.578125 C 2.125 -8.972656 2.25 -8.492188 2.5 -8.140625 C 2.75 -7.785156 3.273438 -7.382812 4.078125 -6.9375 C 4.921875 -6.476562 5.53125 -5.96875 5.90625 -5.40625 C 6.28125 -4.84375 6.46875 -4.164062 6.46875 -3.375 C 6.46875 -2.289062 6.171875 -1.425781 5.578125 -0.78125 C 4.992188 -0.144531 4.203125 0.171875 3.203125 0.171875 C 2.210938 0.171875 1.375 0.00390625 0.6875 -0.328125 L 0.6875 -1.71875 C 1.039062 -1.519531 1.441406 -1.359375 1.890625 -1.234375 C 2.335938 -1.109375 2.769531 -1.046875 3.1875 -1.046875 Z M 3.1875 -1.046875 "/></g></g></g></svg>